<?xml version="1.0" encoding="utf-8"?>
<!-- Generator: Adobe Illustrator 18.0.0, SVG Export Plug-In . SVG Version: 6.00 Build 0)  -->
<!DOCTYPE svg PUBLIC "-//W3C//DTD SVG 1.1//EN" "http://www.w3.org/Graphics/SVG/1.1/DTD/svg11.dtd">
<svg version="1.1" id="Layer_1" xmlns="http://www.w3.org/2000/svg" xmlns:xlink="http://www.w3.org/1999/xlink" x="0px" y="0px"
	 viewBox="0 0 1152 504" enable-background="new 0 0 1152 504" xml:space="preserve">
<path d="M246.1,252.5c0-23.1-15.3-40.7-37.8-40.7c-22.5,0-37.8,17.6-37.8,40.7c0,23.1,15.3,40.7,37.8,40.7
	C230.9,293.1,246.1,275.5,246.1,252.5 M144.4,252.5c0-36.5,28.3-63.4,63.9-63.4s63.9,26.9,63.9,63.4c0,36.5-28.3,63.4-63.9,63.4
	S144.4,289,144.4,252.5"/>
<path d="M344,291.9c9.3,0,15.6-6.2,15.6-15.4c0-9.1-6.5-15.3-17.1-15.3h-22v30.7H344z M339.1,239.6c10.3,0,15.8-4.9,15.8-13.3
	s-4.5-13.3-14.5-13.3h-19.8v26.5H339.1z M295.2,190.7h47c25.1,0,37.8,14.3,37.8,33.1c0,12-7.3,22.3-18.9,25.2
	c14.5,3.6,24.2,12.5,24.2,29.8c0,20.2-14.7,35.4-40.1,35.4h-49.9V190.7z"/>
<path d="M404.3,290.8l20.2-12.9c5.4,8.9,12.5,15.4,25.1,15.4c10.5,0,17.3-5.3,17.3-12.5c0-8.7-6.9-11.8-18.5-16.9l-6.4-2.7
	c-18.3-7.8-30.5-17.6-30.5-38.3c0-19.1,14.5-33.6,37.2-33.6c16.2,0,27.8,5.6,36.1,20.3L465,222.3c-4.4-7.8-9.1-10.9-16.3-10.9
	c-7.4,0-12.2,4.7-12.2,10.9c0,7.6,4.7,10.7,15.6,15.4l6.4,2.7c21.6,9.3,33.8,18.7,33.8,40c0,22.9-18,35.4-42.1,35.4
	C427,315.8,411.9,305.1,404.3,290.8"/>
<path d="M650.8,269.5v-78.8h25.4v77.4c0,18,7.8,24.9,24.7,24.9c16.7,0,24.3-6.9,24.3-24.9v-77.4h25.4v78.8
	c0,31.2-21.6,46.3-49.8,46.3C672.4,315.8,650.8,300.8,650.8,269.5"/>
<path d="M828.4,249.9c12.5,0,20.5-4.9,20.5-18.5c0-13.8-8.4-18.3-20.5-18.3h-19.6v36.9H828.4z M783.4,190.7h45.8
	c25.2,0,45.9,11.8,45.9,40.7c0,18.7-9.8,30.5-24.2,36.1l28.2,46.7H850L825,271.4h-16.2v42.9h-25.4V190.7z"/>
<path d="M574.9,292.8c-22.3,0-37.4-17.3-37.4-40.3c0-23.1,15.1-40.3,37.4-40.3c13.7,0,23.5,6.3,29.4,15.2l20-12.9
	c-11.1-17.3-27.1-25.2-49.4-25.2c-35.4,0-63.6,26.7-63.6,63.2c0,36.5,28.1,63.2,63.6,63.2c22.3,0,38.2-8,49.3-25.1l-20-12.9
	C598.3,286.4,588.4,292.8,574.9,292.8"/>
<path d="M934.8,277.7l8.3-20.1c3.6-8.7,7.3-22.2,7.3-22.2s3.8,13.4,7.4,22.2l8.4,20.1H934.8z M951.9,189.6h-2.2l-54.3,124.6H920
	l6.4-15.3h49l6.4,15.3h26.7L951.9,189.6z"/>
</svg>
