<?xml version="1.0" encoding="utf-8"?>
<!-- Generator: Adobe Illustrator 18.0.0, SVG Export Plug-In . SVG Version: 6.00 Build 0)  -->
<!DOCTYPE svg PUBLIC "-//W3C//DTD SVG 1.1//EN" "http://www.w3.org/Graphics/SVG/1.1/DTD/svg11.dtd">
<svg version="1.1" xmlns="http://www.w3.org/2000/svg" xmlns:xlink="http://www.w3.org/1999/xlink" x="0px" y="0px"
	 viewBox="0 0 1152 504" enable-background="new 0 0 1152 504" xml:space="preserve">
<g id="Layer_1">
</g>
<g id="logo">
	<g>
		<path d="M902.9,314.6c-0.5,0-1-0.1-1.5-0.3c-2.2-0.8-3.4-3.3-2.6-5.5l43.1-116.5c0.8-2.2,3.3-3.4,5.5-2.6c2.2,0.8,3.4,3.3,2.5,5.5
			l-43.1,116.5C906.3,313.5,904.6,314.6,902.9,314.6z"/>
		<path d="M917,314.6c-0.5,0-1-0.1-1.5-0.3c-2.2-0.8-3.4-3.3-2.6-5.5l9.4-25.4h35c2.4,0,4.3,1.9,4.3,4.3s-1.9,4.3-4.3,4.3h-29
			l-7.3,19.8C920.4,313.5,918.8,314.6,917,314.6z"/>
		<path d="M999.6,314.6c-1.7,0-3.3-1-4-2.7l-43-111.6c-0.9-2.2,0.2-4.7,2.5-5.6c2.2-0.9,4.7,0.3,5.6,2.5l43,111.6
			c0.9,2.2-0.3,4.7-2.5,5.6C1000.7,314.5,1000.2,314.6,999.6,314.6z"/>
		<path d="M985.5,314.6c-1.7,0-3.4-1-4-2.8l-28-73.1c-0.9-2.2,0.3-4.7,2.5-5.6s4.7,0.3,5.6,2.5l28,73.1c0.9,2.2-0.3,4.7-2.5,5.6
			C986.5,314.5,986,314.6,985.5,314.6z"/>
		<path d="M952.2,278.7h-28.1l22.4-60.4c0.8-2.2,3.3-3.4,5.5-2.5c2.2,0.8,3.4,3.3,2.5,5.5l-18.1,48.8h15.7c2.4,0,4.3,1.9,4.3,4.3
			C956.5,276.8,954.6,278.7,952.2,278.7z"/>
		<g>
			<g>
				<path d="M789.7,313.8L789.7,313.8c-1.3,0-2.3-1-2.3-2.3V195.4c0-1.3,1-2.3,2.3-2.3l0,0c1.3,0,2.3,1,2.3,2.3l0,116.1
					C792.1,312.8,791,313.8,789.7,313.8z"/>
			</g>
			<g>
				<path d="M800.1,313.8L800.1,313.8c-1.3,0-2.3-1-2.3-2.3V194.8c0-1.3,1-2.3,2.3-2.3l0,0c1.3,0,2.3,1,2.3,2.3l0,116.7
					C802.4,312.8,801.3,313.8,800.1,313.8z"/>
			</g>
			<g>
				<path d="M810.4,272.3L810.4,272.3c-1.3,0-2.3-1-2.3-2.3v-15.8c0-1.3,1-2.3,2.3-2.3l0,0c1.3,0,2.3,1,2.3,2.3V270
					C812.7,271.3,811.7,272.3,810.4,272.3z"/>
				<path d="M810.4,212.8c-1.3,0-2.3-1-2.3-2.3v-15.7c0-1.3,1-2.3,2.3-2.3c1.3,0,2.3,1,2.3,2.3v15.7
					C812.7,211.8,811.7,212.8,810.4,212.8z"/>
			</g>
			<g>
				<path d="M820.7,272.3c-1.3,0-2.3-1-2.3-2.3v-15.8c0-1.3,1.1-2.3,2.3-2.3c1.3,0,2.3,1,2.3,2.3V270
					C823.1,271.3,822,272.3,820.7,272.3z"/>
				<path d="M820.7,213c-1.3,0-2.3-1-2.3-2.3v-15.9c0-1.3,1-2.3,2.3-2.3c1.3,0,2.3,1,2.3,2.3v15.9C823.1,212,822,213,820.7,213z"/>
			</g>
			<g>
				<path d="M831.1,272.4c-1.3,0-2.3-1-2.3-2.3v-15.9c0-1.3,1-2.3,2.3-2.3c1.3,0,2.3,1,2.3,2.3v15.9
					C833.4,271.4,832.4,272.4,831.1,272.4z"/>
				<path d="M831.1,213.2L831.1,213.2c-1.3,0-2.3-1-2.3-2.3v-16.1c0-1.3,1-2.3,2.3-2.3l0,0c1.3,0,2.3,1,2.3,2.3v16.1
					C833.4,212.2,832.4,213.2,831.1,213.2z"/>
			</g>
			<g>
				<path d="M841.4,290.7c-1.3,0-2.3-1-2.3-2.3v-36.4c0-1.3,1-2.3,2.3-2.3c1.3,0,2.3,1,2.3,2.3v36.4
					C843.7,289.7,842.7,290.7,841.4,290.7z"/>
				<path d="M841.4,214.3c-1.3,0-2.3-1-2.3-2.3v-16.6c0-1.3,1-2.3,2.3-2.3c1.3,0,2.3,1,2.3,2.3V212
					C843.7,213.3,842.7,214.3,841.4,214.3z"/>
			</g>
			<g>
				<path d="M851.7,308.7c-1.3,0-2.3-1.1-2.3-2.3v-31.6c0-1.3,1-2.3,2.3-2.3c1.3,0,2.3,1,2.3,2.3v31.6
					C854.1,307.7,853,308.7,851.7,308.7z"/>
				<path d="M851.7,266.5c-1.3,0-2.3-1-2.3-2.3v-20.3c0-1.3,1-2.3,2.3-2.3c1.3,0,2.3,1,2.3,2.3v20.3
					C854.1,265.4,853,266.5,851.7,266.5z"/>
				<path d="M851.7,222.2L851.7,222.2c-1.3,0-2.3-1-2.3-2.3v-20.8c0-1.3,1-2.3,2.3-2.3l0,0c1.3,0,2.3,1,2.3,2.3l0,20.8
					C854.1,221.1,853,222.2,851.7,222.2z"/>
			</g>
			<g>
				<path d="M862.1,314.4c-1.3,0-2.3-1-2.3-2.3v-19.5c0-1.3,1-2.3,2.3-2.3c1.3,0,2.3,1,2.3,2.3V312
					C864.4,313.3,863.3,314.4,862.1,314.4z"/>
				<path d="M862.1,258.5L862.1,258.5c-1.3,0-2.3-1-2.3-2.3v-48.9c0-1.3,1-2.3,2.3-2.3l0,0c1.3,0,2.3,1,2.3,2.3l0,48.9
					C864.4,257.5,863.3,258.5,862.1,258.5z"/>
			</g>
			<g>
				<path d="M872.4,237.7L872.4,237.7c-1.3,0-2.3-1-2.3-2.3l0-9.9c0-1.3,1-2.3,2.3-2.3l0,0c1.3,0,2.3,1,2.3,2.3v9.9
					C874.7,236.7,873.7,237.7,872.4,237.7z"/>
			</g>
		</g>
		<path d="M694.4,305.8c-0.1-5.1,4-9.3,9.1-9.4l0,0c5.1-0.1,9.4,4,9.4,9.1l0,0c0.1,5.1-4,9.4-9.1,9.4l0,0c-0.1,0-0.1,0-0.2,0l0,0
			C698.6,314.9,694.5,310.9,694.4,305.8z M674.1,306.8L674.1,306.8L674.1,306.8c-4.2-3-5.1-8.8-2.1-13l0,0c3-4.2,8.8-5.1,13-2.1l0,0
			c4.2,3,5.1,8.8,2.1,13l0,0c-1.8,2.5-4.6,3.9-7.5,3.9l0,0C677.6,308.6,675.8,308,674.1,306.8z M720.3,304.6
			c-3.1-4.1-2.3-9.9,1.8-13l0,0c4.1-3.1,9.9-2.3,13,1.8l0,0c3.1,4.1,2.3,9.9-1.8,13l0,0c-1.7,1.3-3.6,1.9-5.6,1.9l0,0
			C724.9,308.3,722.2,307,720.3,304.6z M657.4,279.9c-1-5.1,2.3-9.9,7.3-10.9l0,0c5-1,9.9,2.3,10.9,7.4l0,0c1,5-2.3,9.9-7.4,10.9
			l0,0c-0.6,0.1-1.2,0.2-1.8,0.2l0,0C662.1,287.5,658.2,284.4,657.4,279.9z M738.4,286.5c-5.1-0.7-8.6-5.5-7.8-10.5l0,0
			c0.8-5.1,5.5-8.6,10.5-7.8l0,0c5.1,0.8,8.6,5.5,7.8,10.6l0,0l0,0l0,0c-0.7,4.6-4.7,7.9-9.2,7.9l0,0
			C739.3,286.6,738.9,286.6,738.4,286.5z M656.5,252.8c0-5.1,4.1-9.3,9.3-9.3l0,0c5.1,0,9.3,4.2,9.3,9.3l0,0c0,5.1-4.2,9.3-9.3,9.3
			l0,0C660.6,262.1,656.5,257.9,656.5,252.8z M731,251.9c0-5.1,4.2-9.3,9.3-9.3l0,0c5.1,0,9.3,4.2,9.3,9.3l0,0
			c0,5.1-4.1,9.3-9.3,9.3l0,0C735.2,261.2,731,257,731,251.9z M656.5,227.3c0-5.1,4.1-9.3,9.3-9.3l0,0c5.1,0,9.3,4.1,9.3,9.3l0,0
			c0,5.1-4.2,9.3-9.3,9.3l0,0C660.6,236.6,656.5,232.4,656.5,227.3z M731,226.4c0-5.1,4.2-9.3,9.3-9.3l0,0c5.1,0,9.3,4.2,9.3,9.3
			l0,0c0,5.1-4.1,9.3-9.3,9.3l0,0C735.2,235.7,731,231.5,731,226.4z M656.5,201.9c0-5.1,4.1-9.3,9.3-9.3l0,0c5.1,0,9.3,4.2,9.3,9.3
			l0,0c0,5.1-4.2,9.3-9.3,9.3l0,0C660.6,211.2,656.5,207,656.5,201.9z M731,201c0-5.1,4.2-9.3,9.3-9.3l0,0c5.1,0,9.3,4.2,9.3,9.3
			l0,0c0,5.1-4.1,9.3-9.3,9.3l0,0C735.2,210.3,731,206.1,731,201z"/>
		<g>
			<path d="M581.6,188.4c0-1.2-1-2.2-2.2-2.2c-1.2,0-2.2,1-2.2,2.2c0,1.2,1,2.2,2.2,2.2C580.6,190.6,581.6,189.6,581.6,188.4z"/>
			<path d="M592.1,188.3c0-1-0.8-1.8-1.8-1.8c-1,0-1.8,0.8-1.8,1.8c0,1,0.8,1.8,1.8,1.8C591.3,190.1,592.1,189.3,592.1,188.3z"/>
			<path d="M570.6,188.3c0-1-0.8-1.8-1.8-1.8c-1,0-1.8,0.8-1.8,1.8c0,1,0.8,1.8,1.8,1.8C569.8,190.1,570.6,189.3,570.6,188.3z"/>
			<path d="M559.1,188.3c0-0.7-0.6-1.3-1.3-1.3c-0.7,0-1.3,0.6-1.3,1.3c0,0.7,0.6,1.3,1.3,1.3C558.6,189.6,559.1,189,559.1,188.3z"
				/>
			<path d="M554.1,193.8c0-1-0.8-1.8-1.8-1.8s-1.8,0.8-1.8,1.8c0,1,0.8,1.8,1.8,1.8C553.3,195.6,554.1,194.8,554.1,193.8z"/>
			<path d="M585.9,225.8c0-0.5-0.4-0.9-0.9-0.9c-0.5,0-0.9,0.4-0.9,0.9c0,0.5,0.4,0.9,0.9,0.9C585.4,226.7,585.9,226.3,585.9,225.8z
				"/>
			<path d="M608,236.7c0-0.7-0.6-1.3-1.3-1.3c-0.7,0-1.3,0.6-1.3,1.3c0,0.7,0.6,1.3,1.3,1.3C607.5,237.9,608,237.4,608,236.7z"/>
			<path d="M591.2,231.4c0-0.5-0.4-0.9-0.9-0.9c-0.5,0-0.9,0.4-0.9,0.9c0,0.5,0.4,0.9,0.9,0.9C590.8,232.3,591.2,231.9,591.2,231.4z
				"/>
			<path d="M585.6,182.5c0-0.5-0.4-0.9-0.9-0.9c-0.5,0-0.9,0.4-0.9,0.9s0.4,0.9,0.9,0.9C585.2,183.4,585.6,183,585.6,182.5z"/>
			<path d="M574.6,182.5c0-0.4-0.3-0.7-0.7-0.7c-0.4,0-0.7,0.3-0.7,0.7c0,0.4,0.3,0.7,0.7,0.7C574.3,183.2,574.6,182.9,574.6,182.5z
				"/>
			<path d="M564.1,182.5c0-0.4-0.3-0.7-0.7-0.7c-0.4,0-0.7,0.3-0.7,0.7c0,0.4,0.3,0.7,0.7,0.7C563.7,183.2,564.1,182.9,564.1,182.5z
				"/>
			<path d="M516.4,231.6c0-1.1-0.9-2-2-2c-1.1,0-2,0.9-2,2c0,1.1,0.9,2,2,2C515.5,233.6,516.4,232.7,516.4,231.6z"/>
			<path d="M515.5,220.7c0-0.7-0.6-1.3-1.3-1.3c-0.7,0-1.3,0.6-1.3,1.3c0,0.7,0.6,1.3,1.3,1.3C514.9,221.9,515.5,221.4,515.5,220.7z
				"/>
			<path d="M521.3,215.2c0-0.8-0.6-1.4-1.4-1.4c-0.8,0-1.5,0.6-1.5,1.4c0,0.8,0.6,1.5,1.5,1.5C520.6,216.7,521.3,216,521.3,215.2z"
				/>
			<path d="M526.8,209.9c0-0.9-0.7-1.6-1.6-1.6c-0.9,0-1.6,0.7-1.6,1.6c0,0.9,0.7,1.6,1.6,1.6C526,211.5,526.8,210.8,526.8,209.9z"
				/>
			<path d="M546.5,188.9c-0.5,0-0.9-0.4-0.9-0.9c0-0.5,0.4-0.9,0.9-0.9c0.5,0,0.9,0.4,0.9,0.9C547.4,188.5,547,188.9,546.5,188.9z"
				/>
			<path d="M541.5,194.8c-0.6,0-1.1-0.5-1.1-1.1c0-0.6,0.5-1.1,1.1-1.1c0.6,0,1.1,0.5,1.1,1.1C542.6,194.3,542.1,194.8,541.5,194.8z
				"/>
			<path d="M536,200.4c-0.7,0-1.3-0.6-1.3-1.3c0-0.7,0.6-1.3,1.3-1.3c0.7,0,1.3,0.6,1.3,1.3C537.2,199.8,536.7,200.4,536,200.4z"/>
			<path d="M532.2,204.4c0-0.9-0.7-1.6-1.6-1.6c-0.9,0-1.6,0.7-1.6,1.6c0,0.9,0.7,1.6,1.6,1.6C531.5,206,532.2,205.3,532.2,204.4z"
				/>
			<path d="M575.2,225.8c0-0.7-0.5-1.2-1.2-1.2c-0.7,0-1.2,0.5-1.2,1.2c0,0.7,0.5,1.2,1.2,1.2C574.7,227,575.2,226.5,575.2,225.8z"
				/>
			<path d="M558.2,242.1c0-0.2-0.2-0.5-0.4-0.5c-0.3,0-0.5,0.2-0.5,0.5c0,0.2,0.2,0.5,0.5,0.5C558,242.5,558.2,242.3,558.2,242.1z"
				/>
			<path d="M569.1,231.2c0-0.3-0.2-0.5-0.5-0.5c-0.2,0-0.5,0.2-0.5,0.5c0,0.2,0.2,0.5,0.5,0.5C568.9,231.7,569.1,231.5,569.1,231.2z
				"/>
			<path d="M553.6,236.7c0-1-0.8-1.8-1.8-1.8c-1,0-1.8,0.8-1.8,1.8c0,1,0.8,1.8,1.8,1.8C552.8,238.5,553.6,237.7,553.6,236.7z"/>
			<path d="M552.9,247.9c0-0.5-0.4-0.9-0.9-0.9c-0.5,0-0.9,0.4-0.9,0.9c0,0.5,0.4,0.9,0.9,0.9C552.5,248.8,552.9,248.4,552.9,247.9z
				"/>
			<path d="M560,222.9"/>
			<path d="M560.9,222.9"/>
			<path d="M548.5,242.2c0,1.3-1,2.3-2.3,2.3c-1.3,0-2.3-1-2.3-2.3c0-1.2,1-2.3,2.3-2.3C547.5,239.9,548.5,240.9,548.5,242.2z"/>
			<path d="M548.5,253.3c0,1.2-1,2.3-2.3,2.3c-1.3,0-2.3-1-2.3-2.3c0-1.3,1-2.3,2.3-2.3C547.5,251,548.5,252,548.5,253.3z"/>
			<path d="M559,231.5c0,0.9-0.7,1.6-1.6,1.6c-0.9,0-1.6-0.7-1.6-1.6c0-0.9,0.7-1.6,1.6-1.6C558.2,229.8,559,230.6,559,231.5z"/>
			<path d="M564.7,225.8c0,1-0.8,1.8-1.8,1.8s-1.8-0.8-1.8-1.8c0-1,0.8-1.8,1.8-1.8S564.7,224.7,564.7,225.8z"/>
			<path d="M570.6,220.2c0,1.3-1.1,2.4-2.4,2.4c-1.3,0-2.4-1.1-2.4-2.4c0-1.3,1.1-2.4,2.4-2.4C569.6,217.9,570.6,218.9,570.6,220.2z
				"/>
			<path d="M581.3,220.1c0,1.1-0.9,2-2,2c-1.1,0-2-0.9-2-2c0-1.1,0.9-2,2-2C580.4,218.1,581.3,219,581.3,220.1z"/>
			<path d="M603.2,231.2c0,1.1-0.9,1.9-1.9,1.9c-1.1,0-1.9-0.8-1.9-1.9c0-1.1,0.9-1.9,1.9-1.9C602.4,229.3,603.2,230.2,603.2,231.2z
				"/>
			<path d="M613.8,231.2c0,1.1-0.9,1.9-1.9,1.9c-1.1,0-1.9-0.9-1.9-1.9c0-1.1,0.9-1.9,1.9-1.9C612.9,229.3,613.8,230.1,613.8,231.2z
				"/>
			<path d="M598.4,225.7c0,1.3-1.1,2.4-2.4,2.4c-1.3,0-2.4-1.1-2.4-2.4c0-1.3,1-2.4,2.4-2.4C597.3,223.3,598.3,224.4,598.4,225.7z"
				/>
			<path d="M617.1,223.4c1.3,0,2.3,1.1,2.4,2.4c0,1.3-1.1,2.4-2.4,2.4c-1.3,0-2.4-1.1-2.4-2.4"/>
			<path d="M624.8,210.1c0,1.3-1.1,2.4-2.4,2.4c-1.3,0-2.4-1-2.4-2.4c0-1.3,1-2.4,2.4-2.4C623.8,207.7,624.8,208.8,624.8,210.1z"/>
			<path d="M624.8,220.4c0,1.3-1.1,2.4-2.4,2.4c-1.3,0-2.4-1.1-2.4-2.4c0-1.3,1-2.4,2.4-2.4C623.8,218,624.8,219.1,624.8,220.4z"/>
			<path d="M629.6,215.2c0,0.9-0.7,1.5-1.6,1.5c-0.9,0-1.5-0.7-1.5-1.5c0-0.9,0.7-1.5,1.5-1.5C628.9,213.7,629.6,214.4,629.6,215.2z
				"/>
			<path d="M629.1,226.1c0,0.5-0.4,0.9-0.9,0.9c-0.5,0-0.9-0.4-0.9-0.9c0-0.5,0.4-0.9,0.9-0.9C628.7,225.2,629.1,225.6,629.1,226.1z
				"/>
			<path d="M624,231.4c0,0.5-0.4,0.9-0.9,0.9c-0.5,0-0.9-0.4-0.9-0.9c0-0.5,0.4-0.9,0.9-0.9C623.6,230.5,624,230.9,624,231.4z"/>
			<path d="M618.4,236.9c0,0.5-0.4,0.9-0.9,0.9c-0.5,0-0.9-0.4-0.9-0.9c0-0.5,0.4-0.9,0.9-0.9C618,236,618.4,236.4,618.4,236.9z"/>
			<path d="M614.1,199.2c0,1.3-1.1,2.4-2.4,2.4c-1.3,0-2.4-1-2.4-2.4c0-1.3,1.1-2.4,2.4-2.4C613,196.9,614,197.9,614.1,199.2z"/>
			<path d="M608.3,193.7c0,1.1-0.9,2-2,2c-1.1,0-2-0.9-2-2c0-1.1,0.9-2,2-2C607.4,191.7,608.3,192.6,608.3,193.7z"/>
			<path d="M602.4,188.3c0,0.7-0.6,1.3-1.3,1.3c-0.7,0-1.3-0.6-1.3-1.3c0-0.7,0.6-1.3,1.3-1.3C601.8,187,602.4,187.6,602.4,188.3z"
				/>
			<path d="M614.7,224.7c0-0.7,0.6-1.3,1.3-1.3"/>
			<path d="M614.7,204.7c0-1.3,1-2.4,2.4-2.4h1c0.7,0,1.4,0.6,1.4,1.4v1.7c0.1,0.9-0.6,1.6-1.4,1.7l-1.6,0c-0.9,0-1.7-0.8-1.7-1.7
				V204.7z"/>
			<path d="M581.6,318.2c0,1.2-1,2.2-2.2,2.2c-1.2,0-2.2-1-2.2-2.2c0-1.2,1-2.2,2.2-2.2C580.6,316,581.6,316.9,581.6,318.2z"/>
			<path d="M592.1,318.3c0,1-0.8,1.8-1.8,1.8c-1,0-1.8-0.8-1.8-1.8c0-1,0.8-1.8,1.8-1.8C591.3,316.5,592.1,317.3,592.1,318.3z"/>
			<path d="M570.6,318.3c0,1-0.8,1.8-1.8,1.8c-1,0-1.8-0.8-1.8-1.8c0-1,0.8-1.8,1.8-1.8C569.8,316.4,570.6,317.2,570.6,318.3z"/>
			<path d="M559.1,318.3c0,0.7-0.6,1.3-1.3,1.3c-0.7,0-1.3-0.6-1.3-1.3c0-0.7,0.6-1.3,1.3-1.3C558.6,317,559.1,317.6,559.1,318.3z"
				/>
			<path d="M554.1,312.8c0,1-0.8,1.8-1.8,1.8s-1.8-0.8-1.8-1.8c0-1,0.8-1.8,1.8-1.8C553.3,310.9,554.1,311.8,554.1,312.8z"/>
			<path d="M585.9,280.8c0,0.5-0.4,0.9-0.9,0.9c-0.5,0-0.9-0.4-0.9-0.9c0-0.5,0.4-0.9,0.9-0.9C585.4,279.8,585.9,280.2,585.9,280.8z
				"/>
			<path d="M608,269.9c0,0.7-0.6,1.3-1.3,1.3c-0.7,0-1.3-0.6-1.3-1.3c0-0.7,0.6-1.3,1.3-1.3C607.5,268.6,608,269.2,608,269.9z"/>
			<path d="M591.2,275.2c0,0.5-0.4,0.9-0.9,0.9c-0.5,0-0.9-0.4-0.9-0.9c0-0.5,0.4-0.9,0.9-0.9C590.8,274.2,591.2,274.7,591.2,275.2z
				"/>
			<path d="M585.6,324.1c0,0.5-0.4,0.9-0.9,0.9c-0.5,0-0.9-0.4-0.9-0.9c0-0.5,0.4-0.9,0.9-0.9C585.2,323.2,585.6,323.6,585.6,324.1z
				"/>
			<path d="M574.6,324.1c0,0.4-0.3,0.7-0.7,0.7c-0.4,0-0.7-0.3-0.7-0.7c0-0.4,0.3-0.7,0.7-0.7C574.3,323.3,574.6,323.7,574.6,324.1z
				"/>
			<path d="M564.1,324.1c0,0.4-0.3,0.7-0.7,0.7c-0.4,0-0.7-0.3-0.7-0.7c0-0.4,0.3-0.7,0.7-0.7C563.7,323.3,564.1,323.7,564.1,324.1z
				"/>
			<path d="M516.4,275c0,1.1-0.9,2-2,2c-1.1,0-2-0.9-2-2c0-1.1,0.9-2,2-2C515.5,273,516.4,273.9,516.4,275z"/>
			<path d="M515.5,285.9c0,0.7-0.6,1.3-1.3,1.3c-0.7,0-1.3-0.6-1.3-1.3c0-0.7,0.6-1.3,1.3-1.3C514.9,284.7,515.5,285.2,515.5,285.9z
				"/>
			<path d="M510.2,280.6c0,0.7-0.6,1.3-1.3,1.3c-0.7,0-1.3-0.6-1.3-1.3c0-0.7,0.6-1.3,1.3-1.3C509.6,279.3,510.2,279.9,510.2,280.6z
				"/>
			<path d="M510.3,269.6c0,0.8-0.7,1.5-1.5,1.5c-0.8,0-1.5-0.6-1.5-1.5c0-0.8,0.6-1.4,1.5-1.4C509.7,268.1,510.3,268.7,510.3,269.6z
				"/>
			<path d="M510.3,258.6c0,0.8-0.7,1.5-1.5,1.5c-0.8,0-1.5-0.6-1.5-1.5c0-0.8,0.6-1.5,1.5-1.5C509.7,257.2,510.3,257.8,510.3,258.6z
				"/>
			<path d="M510.2,225.9c0-0.7-0.6-1.3-1.3-1.3c-0.7,0-1.3,0.6-1.3,1.3c0,0.7,0.6,1.3,1.3,1.3C509.6,227.2,510.2,226.6,510.2,225.9z
				"/>
			<path d="M510.3,237c0-0.8-0.7-1.4-1.5-1.4c-0.8,0-1.5,0.6-1.5,1.4c0,0.8,0.6,1.5,1.5,1.5C509.7,238.4,510.3,237.8,510.3,237z"/>
			<path d="M510.3,247.9c0-0.8-0.7-1.5-1.5-1.5c-0.8,0-1.5,0.6-1.5,1.5c0,0.8,0.6,1.5,1.5,1.5C509.7,249.4,510.3,248.7,510.3,247.9z
				"/>
			<path d="M521.3,291.4c0,0.8-0.6,1.5-1.4,1.5c-0.8,0-1.5-0.7-1.5-1.5c0-0.8,0.6-1.4,1.5-1.4C520.6,289.9,521.3,290.6,521.3,291.4z
				"/>
			<path d="M526.8,296.7c0,0.9-0.7,1.6-1.6,1.6c-0.9,0-1.6-0.7-1.6-1.6c0-0.9,0.7-1.6,1.6-1.6C526,295,526.8,295.8,526.8,296.7z"/>
			<path d="M546.5,317.7c-0.5,0-0.9,0.4-0.9,0.9c0,0.5,0.4,0.9,0.9,0.9c0.5,0,0.9-0.4,0.9-0.9C547.4,318.1,547,317.7,546.5,317.7z"
				/>
			<path d="M541.5,311.8c-0.6,0-1.1,0.5-1.1,1.1c0,0.6,0.5,1.1,1.1,1.1c0.6,0,1.1-0.5,1.1-1.1C542.6,312.3,542.1,311.8,541.5,311.8z
				"/>
			<path d="M536,306.2c-0.7,0-1.3,0.6-1.3,1.3c0,0.7,0.6,1.3,1.3,1.3c0.7,0,1.3-0.6,1.3-1.3C537.2,306.7,536.7,306.2,536,306.2z"/>
			<path d="M532.2,302.2c0,0.9-0.7,1.6-1.6,1.6c-0.9,0-1.6-0.7-1.6-1.6c0-0.9,0.7-1.6,1.6-1.6C531.5,300.5,532.2,301.3,532.2,302.2z
				"/>
			<path d="M575.2,280.7c0,0.6-0.5,1.2-1.2,1.2c-0.7,0-1.2-0.5-1.2-1.2c0-0.7,0.5-1.2,1.2-1.2C574.7,279.5,575.2,280.1,575.2,280.7z
				"/>
			<path d="M558.2,264.5c0,0.2-0.2,0.4-0.4,0.4c-0.3,0-0.5-0.2-0.5-0.4c0-0.3,0.2-0.5,0.5-0.5C558,264,558.2,264.2,558.2,264.5z"/>
			<path d="M569.1,275.4c0,0.2-0.2,0.4-0.5,0.4c-0.2,0-0.5-0.2-0.5-0.4c0-0.3,0.2-0.5,0.5-0.5C568.9,274.9,569.1,275.1,569.1,275.4z
				"/>
			<path d="M553.6,269.9c0,1-0.8,1.8-1.8,1.8c-1,0-1.8-0.8-1.8-1.8c0-1,0.8-1.8,1.8-1.8C552.8,268.1,553.6,268.9,553.6,269.9z"/>
			<path d="M552.9,258.7c0,0.5-0.4,0.9-0.9,0.9c-0.5,0-0.9-0.4-0.9-0.9c0-0.5,0.4-0.9,0.9-0.9C552.5,257.8,552.9,258.2,552.9,258.7z
				"/>
			<path d="M560,283.7"/>
			<path d="M560.9,283.7"/>
			<path d="M548.5,264.4c0-1.2-1-2.3-2.3-2.3c-1.3,0-2.3,1-2.3,2.3c0,1.3,1,2.3,2.3,2.3C547.5,266.7,548.5,265.7,548.5,264.4z"/>
			<path d="M559,275.1c0-0.9-0.7-1.6-1.6-1.6c-0.9,0-1.6,0.7-1.6,1.6c0,0.9,0.7,1.6,1.6,1.6C558.2,276.7,559,276,559,275.1z"/>
			<path d="M564.7,280.8c0-1-0.8-1.8-1.8-1.8s-1.8,0.8-1.8,1.8c0,1,0.8,1.8,1.8,1.8S564.7,281.8,564.7,280.8z"/>
			<path d="M570.6,286.4c0-1.3-1.1-2.4-2.4-2.4c-1.3,0-2.4,1.1-2.4,2.4c0,1.3,1.1,2.4,2.4,2.4C569.6,288.7,570.6,287.6,570.6,286.4z
				"/>
			<path d="M581.3,286.4c0-1.1-0.9-2-2-2c-1.1,0-2,0.9-2,2c0,1.1,0.9,2,2,2C580.4,288.4,581.3,287.5,581.3,286.4z"/>
			<path d="M603.2,275.4c0-1.1-0.9-1.9-1.9-1.9c-1.1,0-1.9,0.8-1.9,1.9c0,1.1,0.9,1.9,1.9,1.9C602.4,277.3,603.2,276.4,603.2,275.4z
				"/>
			<path d="M613.8,275.4c0-1.1-0.9-1.9-1.9-1.9c-1.1,0-1.9,0.9-1.9,1.9c0,1.1,0.9,1.9,1.9,1.9C612.9,277.3,613.8,276.5,613.8,275.4z
				"/>
			<path d="M598.4,280.9c0-1.3-1.1-2.4-2.4-2.4c-1.3,0-2.4,1.1-2.4,2.4c0,1.3,1,2.3,2.4,2.3C597.3,283.3,598.3,282.2,598.4,280.9z"
				/>
			<path d="M624.8,296.5c0-1.3-1.1-2.4-2.4-2.4c-1.3,0-2.4,1.1-2.4,2.4c0,1.3,1,2.4,2.4,2.4C623.8,298.9,624.8,297.8,624.8,296.5z"
				/>
			<path d="M629.6,291.3c0-0.8-0.7-1.5-1.6-1.5c-0.9,0-1.5,0.7-1.5,1.5c0,0.9,0.7,1.5,1.5,1.5C628.9,292.9,629.6,292.2,629.6,291.3z
				"/>
			<path d="M629.1,280.5c0-0.5-0.4-0.9-0.9-0.9c-0.5,0-0.9,0.4-0.9,0.9c0,0.5,0.4,0.9,0.9,0.9C628.7,281.4,629.1,281,629.1,280.5z"
				/>
			<path d="M624,275.1c0-0.5-0.4-0.9-0.9-0.9c-0.5,0-0.9,0.4-0.9,0.9c0,0.5,0.4,0.9,0.9,0.9C623.6,276.1,624,275.6,624,275.1z"/>
			<path d="M618.4,269.6c0-0.5-0.4-0.9-0.9-0.9c-0.5,0-0.9,0.4-0.9,0.9c0,0.5,0.4,0.9,0.9,0.9C618,270.5,618.4,270.2,618.4,269.6z"
				/>
			<path d="M614.1,307.3c0-1.3-1.1-2.4-2.4-2.4c-1.3,0-2.4,1.1-2.4,2.4c0,1.3,1.1,2.4,2.4,2.4C613,309.7,614,308.6,614.1,307.3z"/>
			<path d="M608.3,312.8c0-1.1-0.9-2-2-2c-1.1,0-2,0.9-2,2c0,1.1,0.9,2,2,2C607.4,314.8,608.3,314,608.3,312.8z"/>
			<path d="M602.4,318.3c0-0.7-0.6-1.2-1.3-1.2c-0.7,0-1.3,0.6-1.3,1.2c0,0.7,0.6,1.3,1.3,1.3C601.8,319.6,602.4,319,602.4,318.3z"
				/>
			<path d="M622.5,283.9c-1.3,0-2.4,1-2.4,2.4V286c0,1.5-1.2,2.7-2.7,2.7c-1.5,0-2.7-1.2-2.7-2.7v-1.1c0-0.9,0.7-1.6,1.6-1.6
				l0.8-0.1c1.3,0,2.3-1,2.4-2.4c0-1.3-1.1-2.4-2.4-2.4c-1.3,0-2.4,1.1-2.4,2.4l0,0.1c0,1.3-1.1,2.4-2.4,2.4h-0.8
				c-1.3,0-2.4-1-2.4-2.4l0-0.7c0-1.3-1.1-2.4-2.4-2.4h-0.7c-1.3,0-2.4,1.1-2.4,2.4v1.8c0,0.7-0.6,1.3-1.3,1.3h-2.9
				c-0.7,0-1.3,0.6-1.3,1.3v1.8c0,1.3-1,2.4-2.4,2.4h-1.9c-0.7,0-1.3-0.6-1.3-1.3v-1.6c0-1-0.8-1.8-1.8-1.8h-1.1
				c-1,0-1.8,0.8-1.8,1.8v1.6c0,0.7,0.6,1.3,1.3,1.3l2.2,0c0.7,0,1.3,0.6,1.3,1.3v1.3c0,1.2-1,2.3-2.3,2.3H590c-1.2,0-2.1-0.9-2.3-2
				l0,0c0-1.6-1.3-2.8-2.8-2.8c-1.6,0-2.8,1.3-2.8,2.8l0-0.1c0,1.5-1.2,2.7-2.7,2.7c-1.5,0-2.7-1.2-2.7-2.7l0-0.9
				c0-1-0.8-1.8-1.8-1.8h-1.9c-1,0-1.8,0.8-1.8,1.8l0,1.1c0,1.4-1.1,2.5-2.5,2.5h-0.4c-1.4,0-2.5-1.1-2.5-2.5v-1.1
				c0-1-0.8-1.8-1.8-1.8h-2.4c-0.7,0-1.3-0.6-1.3-1.3v-1.4c0-1.5-1.2-2.7-2.7-2.7h-2.1c-0.4,0-0.6,0.3-0.6,0.6v2
				c0,1.2-1,2.2-2.2,2.2h-0.5c-1.2,0-2.2-1-2.2-2.2v-0.4c0-1.2,1-2.2,2.2-2.2l2.1,0c0.2,0,0.5-0.2,0.5-0.5v-2.2
				c0-1.5-1.2-2.7-2.7-2.7h-2.1c-0.3,0-0.6,0.3-0.6,0.6l0,2.3c0,1-0.8,1.8-1.8,1.8h-0.5c-1.3,0-2.4-1.1-2.4-2.4
				c0-1.3,1.1-2.4,2.4-2.4l1.8,0c0.3,0,0.6-0.3,0.6-0.6v-2.1c0-1.5-1.2-2.7-2.7-2.7h-0.9c-1,0-1.8-0.8-1.8-1.8l0-3.2
				c0-0.2-0.2-0.5-0.4-0.5l-2.2,0c-1.2,0-2.2-1-2.2-2.2V264c0-1.4,1.1-2.5,2.5-2.5h0.4c1,0,1.8-0.8,1.8-1.8v-0.9
				c0-1.5-1.2-2.7-2.7-2.7h0c-1.5,0-2.7-1.2-2.7-2.7c0-1.5,1.2-2.7,2.7-2.7l0,0c1.5,0,2.7-1.2,2.7-2.7V247c0-1-0.8-1.8-1.8-1.8
				l-0.4,0c-1.4,0-2.5-1.1-2.5-2.5v-0.8c0-1.2,1-2.2,2.2-2.2h2.2c0.2,0,0.4-0.2,0.4-0.4l0-3.2c0-1,0.8-1.8,1.8-1.8l0.9,0.1
				c1.5,0,2.7-1.2,2.7-2.7V230c0-0.7-0.6-1.3-1.3-1.3l-1.1,0c-1.3,0-2.4-1.1-2.4-2.4c0-1.3,1.1-2.4,2.4-2.4h0.5c1,0,1.8,0.8,1.8,1.8
				l0,1.4c0,0.9,0.7,1.6,1.6,1.6h1.1c1.5,0,2.7-1.2,2.7-2.7v-1.8c0-0.5-0.4-0.9-0.9-0.9l-1.6,0c-1.2,0-2.2-1-2.2-2.2v-0.5
				c0-1.2,1-2.2,2.2-2.2h0.5c1.2,0,2.1,1,2.1,2.2l0,1.3c0,0.7,0.6,1.3,1.3,1.3h1.5c1.5,0,2.7-1.2,2.7-2.7v-1.4
				c0-0.7,0.6-1.3,1.3-1.3l2.4,0c1,0,1.8-0.8,1.8-1.8V215c0-1.4,1.1-2.5,2.5-2.5h0.4c1.4,0,2.5,1.1,2.5,2.5l0,1.1
				c0,1,0.8,1.8,1.8,1.8h1.9c1,0,1.8-0.8,1.8-1.8l0-0.9c0-1.5,1.2-2.7,2.7-2.7c1.5,0,2.7,1.2,2.7,2.6c0,1.6,1.3,2.8,2.8,2.8
				c1.6,0,2.8-1.3,2.8-2.8v0.1c0-1.3,1.1-2,2.4-2h0.6c1.2,0,2.3,1,2.3,2.3v1.3c0,0.7-0.6,1.3-1.3,1.3h-2.2c-0.7,0-1.3,0.6-1.3,1.3
				v1.1c0,1.3,1,2.4,2.4,2.4c1.3,0,2.4-1.1,2.4-2.4v-1.1c0-0.7,0.6-1.3,1.3-1.3h1.9c1.3,0,2.4,1.1,2.4,2.4v1.8
				c0,0.7,0.6,1.3,1.3,1.3l2.9-0.1c0.7,0,1.3,0.6,1.3,1.3v1.8c0,1.3,1.1,2.4,2.4,2.4h0.7c1.3,0,2.4-1.1,2.4-2.4l0-0.7
				c0-1.3,1.1-2.4,2.4-2.4l2.2,0c0.5,0,0.9-0.4,0.9-0.9v-1.8c0-1.5,1.2-2.7,2.7-2.7l1,0c0.9,0,1.7-0.8,1.7-1.7v-1.9
				c0-1-0.8-1.7-1.7-1.7l-1,0c-1.5,0-2.7-1.2-2.7-2.7V208c0-0.5-0.4-0.9-0.9-0.9l-2,0c-1.4,0-2.5-1.1-2.5-2.5l0-2
				c0-0.5-0.4-0.9-0.9-0.9l-2.2,0c-1.3,0-2.4-1.1-2.4-2.4l0-0.7c0-1.3-1.1-2.4-2.4-2.4H600c-0.9,0-1.6,0.7-1.6,1.6v1
				c0,1.2-1,2.2-2.2,2.2H595c-0.8,0-1.4-0.7-1.4-1.5v-2.9c0-0.2,0.2-0.5,0.5-0.5l3-0.1c0.7,0,1.3-0.6,1.3-1.3v-1.1
				c0-1.3-1.1-2.4-2.4-2.4h-0.7c-1.3,0-2.4,1.1-2.4,2.4l0,1.1c0,0.7-0.6,1.3-1.3,1.3h-2.7c-0.7,0-1.3-0.6-1.3-1.3l0-1.3
				c0-1.6-1.3-2.8-2.8-2.8c-1.6,0-2.8,1.3-2.8,2.8l0-0.2c0,1.5-1.2,2.7-2.7,2.7c-1.5,0-2.7-1.2-2.7-2.7h0c0-1.5-1.2-2.6-2.6-2.6
				c-1.5,0-2.7,1.2-2.7,2.6l-0.1,1c0,1-0.8,1.8-1.8,1.8H567c-0.7,0-1.3-0.6-1.3-1.3l0-1.1c0-1.3-1.1-2.4-2.4-2.4
				c-1.3,0-2.4,1.1-2.4,2.4v1.1c0,0.7,0.6,1.3,1.3,1.3l1.9,0c0.8,0,1.5,0.6,1.5,1.4l0,1c0,1.4-1.1,2.5-2.5,2.5h-0.3
				c-1.4,0-2.5-1.1-2.5-2.5v-0.7c0-0.9-0.7-1.6-1.6-1.6h-1.4c-1.3,0-2.4,1.1-2.4,2.4v1.2c0,1-0.8,1.8-1.8,1.8h-1.4
				c-1.3,0-2.4-1.1-2.4-2.4l0-0.1c0-1.3-1.1-2.4-2.4-2.4c-1.3,0-2.4,1.1-2.4,2.4c0,1.3,1.1,2.4,2.4,2.4l0.1,0c1,0,1.8,0.8,1.8,1.8
				v1.5c0,0.9-0.7,1.6-1.6,1.6h-0.8c-1.4,0-2.4-1.1-2.4-2.5v-0.5c0-1-0.8-1.8-1.8-1.8h-1c-1.4,0-2.6,1.2-2.6,2.6l0,2.3
				c0,0.3-0.2,0.5-0.6,0.5l-2.6,0c-1.3,0-2.4,1.1-2.4,2.4l0,2.5c0,0.3-0.2,0.5-0.6,0.5h-2.3c-1.4,0-2.5,1.1-2.5,2.5l0,2.3
				c0,0.3-0.2,0.5-0.5,0.5l-2.1,0c-1.5,0-2.7,1.2-2.7,2.7v0.9c0,1,0.8,1.8,1.8,1.8l1.6,0c0.9,0,1.6,0.7,1.6,1.6v1.3
				c0,1.4-1.1,2.5-2.5,2.5c-1.4,0-2.5-1.1-2.5-2.5l0-0.8c0-1-0.8-1.8-1.8-1.8h-0.8c-1.2,0-2.2,1-2.2,2.2v0.7c0,1.2,1,2.2,2.2,2.2
				h1.3c0.7,0,1.3,0.6,1.3,1.3v2.3c0,1.1-0.9,2-2,2l-0.7,0c-1.5,0-2.7,1.2-2.7,2.7s1.2,2.7,2.7,2.7l-0.3,0c1.3,0,2.4,1.1,2.4,2.5
				v0.5c0,1.4-1.1,2.5-2.4,2.5h-0.8c-0.9,0-1.6-0.7-1.6-1.6l0-2.5c0-0.7-0.6-1.3-1.3-1.3h-1.1c-1.3,0-2.4,1.1-2.4,2.4v0.7
				c0,1.3,1,2.4,2.4,2.4l1.7,0c0.4,0,0.6,0.3,0.6,0.6l-0.1,4.1c0,0.3-0.3,0.6-0.6,0.6l-1.3,0c-1.5,0-2.7,1.2-2.7,2.7
				c0,1.5,1.2,2.7,2.7,2.7h1.3c0.3,0,0.6,0.3,0.6,0.6v4.1c0,0.4-0.3,0.6-0.6,0.6l-1.7,0c-1.3,0-2.4,1.1-2.4,2.4v0.7
				c0,1.3,1,2.3,2.4,2.3h1.1c0.7,0,1.3-0.6,1.3-1.3l0-2.6c0-0.9,0.7-1.6,1.6-1.6h0.8c1.3,0,2.4,1.1,2.4,2.5v0.5
				c0,1.4-1.1,2.5-2.4,2.5l0.3,0c-1.5,0-2.7,1.2-2.7,2.7c0,1.5,1.2,2.7,2.7,2.7h0.7c1.1,0,2,0.9,2,2v2.2c0,0.7-0.6,1.3-1.3,1.3h-1.3
				c-1.2,0-2.2,1-2.2,2.2v0.7c0,1.2,1,2.2,2.2,2.2h0.8c1,0,1.8-0.8,1.8-1.8l0-0.8c0-1.4,1.1-2.5,2.5-2.5c1.4,0,2.5,1.1,2.5,2.5v1.2
				c0,0.9-0.7,1.6-1.6,1.6l-1.6,0c-1,0-1.8,0.8-1.8,1.8v1c0,1.5,1.2,2.7,2.7,2.7h2.4c0.2,0,0.4,0.2,0.4,0.4v2.5
				c0,1.4,1.1,2.5,2.5,2.5h2.5c0.2,0,0.4,0.2,0.4,0.4l0,2.7c0,1.3,1,2.4,2.4,2.4h2.8c0.2,0,0.4,0.2,0.4,0.4v2.5
				c0,1.4,1.2,2.6,2.6,2.6h1c1,0,1.8-0.8,1.8-1.8v-0.5c0-1.3,1.1-2.4,2.4-2.4h0.8c0.9,0,1.6,0.7,1.6,1.6v1.4c0,1-0.8,1.8-1.8,1.8
				h-1.2c-0.7,0-1.2,0.5-1.2,1.2v1.2c0,1.3,1.1,2.4,2.4,2.4c1.3,0,2.4-1.1,2.4-2.4l0,0c0-1.3,1.1-2.4,2.4-2.4h1.4
				c1,0,1.8,0.8,1.8,1.8v1.2c0,1.3,1.1,2.4,2.4,2.4h2.1c0.9,0,1.6,0.7,1.6,1.6l0,0.9c0,1.3,1.1,2.4,2.4,2.4c1.3,0,2.4-1.1,2.4-2.4
				l0-1.2c0-0.7,0.6-1.3,1.3-1.3h2.4c1,0,1.8,0.8,1.8,1.8l0.1,1c0,1.4,1.2,2.6,2.7,2.6c1.5,0,2.6-1.2,2.6-2.6l0,0
				c0-1.5,1.2-2.7,2.7-2.7c1.5,0,2.7,1.2,2.7,2.7l0-0.2c0,1.6,1.3,2.8,2.8,2.8c1.6,0,2.8-1.3,2.8-2.8l0-1.3c0-0.7,0.6-1.3,1.3-1.3
				h2.7c0.7,0,1.3,0.6,1.3,1.3l0,1.1c0,1.3,1.1,2.4,2.4,2.4h0.7c1.3,0,2.4-1,2.4-2.4v-1.1c0-0.7-0.6-1.3-1.3-1.3l-3-0.1
				c-0.3,0-0.5-0.2-0.5-0.5v-2.9c0-0.8,0.7-1.4,1.4-1.4h1.2c1.2,0,2.2,1,2.2,2.2v1c0,0.9,0.7,1.6,1.6,1.6h1.4c1.3,0,2.4-1,2.4-2.4
				l0-0.7c0-1.3,1.1-2.4,2.4-2.4h2.2c0.5,0,0.9-0.4,0.9-0.9l0-2c0-1.4,1.1-2.5,2.5-2.5l2,0c0.5,0,0.9,0.4,0.9,0.9v1.5
				c0,1.3,1,2.3,2.4,2.3h1c0.7,0,1.4-0.6,1.4-1.4v-1.8c0-0.9-0.7-1.5-1.5-1.5l-1.9,0c-0.7,0-1.3-0.6-1.3-1.3v-1.5
				c0-1.5,1.2-2.7,2.7-2.7h1.8c0.5,0,0.8-0.4,0.9-0.9V290c0-0.8,0.7-1.5,1.5-1.5l0.9,0.1c1.3,0,2.3-1.1,2.4-2.3
				C624.8,284.9,623.8,283.9,622.5,283.9z M612.2,213.2c1.1,0,2,0.9,2,2c0,1.1-0.9,2-2,2c-1.1,0-2-0.9-2-2
				C610.2,214.1,611.1,213.2,612.2,213.2z M606.7,207.7c1,0,1.8,0.8,1.8,1.8c0,1-0.8,1.8-1.8,1.8c-1,0-1.8-0.8-1.8-1.8
				C604.9,208.5,605.7,207.7,606.7,207.7z M606.5,218.6c1.3,0,2.4,1.1,2.4,2.4c0,1.3-1.1,2.4-2.4,2.4c-1.3,0-2.3-1.1-2.3-2.4
				C604.1,219.7,605.2,218.6,606.5,218.6z M601,217.4c-1,0-1.8-0.8-1.8-1.8c0-1,0.8-1.8,1.8-1.8c1,0,1.8,0.8,1.8,1.8
				C602.8,216.6,602,217.4,601,217.4z M601.3,201.5c1.2,0,2.2,1,2.2,2.2c0,1.2-1,2.2-2.2,2.2c-1.2,0-2.2-1-2.2-2.2
				C599.1,202.5,600.1,201.5,601.3,201.5z M595.6,208.3c0.8,0,1.5,0.6,1.5,1.4c0,0.8-0.6,1.5-1.5,1.5c-0.8,0-1.5-0.6-1.5-1.5
				C594.1,209,594.8,208.3,595.6,208.3z M590.2,202.8c0.8,0,1.5,0.6,1.5,1.4c0,0.8-0.7,1.5-1.5,1.5c-0.8,0-1.4-0.6-1.4-1.5
				C588.8,203.5,589.4,202.8,590.2,202.8z M584.8,211.9c-1,0-1.8-0.8-1.8-1.8c0-1,0.8-1.8,1.8-1.8c1,0,1.8,0.8,1.8,1.8
				C586.6,211.1,585.8,211.9,584.8,211.9z M584.9,196.1c1.3,0,2.4,1.1,2.4,2.4c0,1.3-1.1,2.4-2.4,2.4c-1.3,0-2.4-1.1-2.4-2.4
				C582.5,197.1,583.6,196.1,584.9,196.1z M579.3,202.9c0.8,0,1.4,0.7,1.4,1.5c0,0.8-0.7,1.5-1.4,1.5c-0.8,0-1.5-0.6-1.5-1.5
				C577.9,203.5,578.5,202.9,579.3,202.9z M573.9,212.4c-1.2,0-2.2-1-2.2-2.2c0-1.2,1-2.2,2.2-2.2c1.2,0,2.2,1,2.2,2.2
				C576.1,211.4,575.1,212.4,573.9,212.4z M573.8,196.2c1.3,0,2.3,1,2.3,2.3c0,1.3-1,2.3-2.3,2.3c-1.3,0-2.3-1-2.3-2.3
				C571.6,197.2,572.6,196.2,573.8,196.2z M568.5,202.7c0.8,0,1.5,0.7,1.5,1.5c0,0.9-0.7,1.5-1.5,1.5c-0.9,0-1.5-0.7-1.5-1.5
				C566.9,203.4,567.6,202.7,568.5,202.7z M563.1,208.1c1,0,1.8,0.8,1.8,1.8c0,1-0.8,1.8-1.8,1.8c-1,0-1.8-0.8-1.8-1.8
				C561.3,208.9,562.1,208.1,563.1,208.1z M557.5,202.1c1,0,1.9,0.9,1.9,1.9c0,1.1-0.9,1.9-1.9,1.9c-1.1,0-1.9-0.8-1.9-1.9
				C555.6,203,556.4,202.1,557.5,202.1z M557.8,213.2c1.3,0,2.4,1,2.4,2.4c0,1.3-1.1,2.4-2.4,2.4c-1.3,0-2.4-1.1-2.4-2.4
				C555.4,214.3,556.5,213.2,557.8,213.2z M552.3,208.3c0.8,0,1.5,0.7,1.5,1.5c0,0.8-0.7,1.4-1.4,1.4c-0.8,0-1.5-0.6-1.5-1.4
				C550.8,208.9,551.5,208.3,552.3,208.3z M546.9,213.7c0.8,0,1.4,0.6,1.4,1.4c0,0.8-0.6,1.5-1.4,1.5c-0.8,0-1.5-0.7-1.5-1.5
				C545.4,214.4,546.1,213.7,546.9,213.7z M521.5,254c0,1-0.8,1.8-1.8,1.8h-0.7c-1.4,0-2.5-1.1-2.5-2.6c0-1.4,1.1-2.5,2.5-2.5h0.7
				c1,0,1.8,0.8,1.8,1.8V254z M524.6,271.6c-1,0-1.8-0.8-1.8-1.8c0-1,0.8-1.8,1.8-1.8c1,0,1.8,0.8,1.8,1.8
				C526.5,270.8,525.6,271.6,524.6,271.6z M524.7,249.4c-0.8,0-1.5-0.6-1.5-1.4c0-0.8,0.6-1.5,1.5-1.5c0.8,0,1.4,0.7,1.4,1.5
				C526.1,248.8,525.5,249.4,524.7,249.4z M526.2,258.9c0,0.8-0.7,1.5-1.4,1.5c-0.8,0-1.5-0.7-1.5-1.5c0-0.8,0.6-1.5,1.5-1.5
				C525.5,257.4,526.2,258,526.2,258.9z M524.6,238.6c-1,0-1.8-0.8-1.8-1.8c0-1,0.8-1.8,1.8-1.8c1,0,1.8,0.8,1.8,1.8
				C526.4,237.8,525.6,238.6,524.6,238.6z M529.9,288.6c-1.3,0-2.4-1.1-2.4-2.4c0-1.3,1.1-2.4,2.4-2.4c1.3,0,2.4,1.1,2.4,2.4
				C532.3,287.6,531.2,288.6,529.9,288.6z M530.5,254.6c-0.7,0-1.3-0.6-1.3-1.3c0-0.7,0.6-1.3,1.3-1.3c0.7,0,1.3,0.6,1.3,1.3
				C531.8,254,531.2,254.6,530.5,254.6z M531.8,264.2c0,0.7-0.6,1.3-1.3,1.3c-0.7,0-1.3-0.6-1.3-1.3c0-0.7,0.6-1.3,1.3-1.3
				C531.2,262.9,531.8,263.5,531.8,264.2z M530.5,243.7c-0.7,0-1.3-0.6-1.3-1.3c0-0.7,0.6-1.3,1.3-1.3c0.7,0,1.3,0.6,1.3,1.3
				C531.8,243.1,531.2,243.7,530.5,243.7z M530.3,232.6c-0.7,0-1.3-0.6-1.3-1.3c0-0.7,0.6-1.3,1.3-1.3c0.7,0,1.3,0.6,1.3,1.3
				C531.6,232.1,531,232.6,530.3,232.6z M530.3,274c0.7,0,1.3,0.6,1.3,1.3c0,0.7-0.6,1.3-1.3,1.3c-0.7,0-1.3-0.6-1.3-1.3
				C529,274.5,529.6,274,530.3,274z M529.9,222.7c-1.3,0-2.4-1.1-2.4-2.4c0-1.3,1.1-2.4,2.4-2.4c1.3,0,2.4,1.1,2.4,2.4
				C532.3,221.6,531.2,222.7,529.9,222.7z M541.6,233.6c-1.1,0-2-0.9-2-2c0-1.1,0.9-2,2-2c1.1,0,2,0.9,2,2
				C543.6,232.7,542.7,233.6,541.6,233.6z M540,220.6c0-0.8,0.7-1.5,1.5-1.5c0.8,0,1.4,0.7,1.4,1.5c0,0.8-0.6,1.5-1.4,1.5
				C540.6,222.1,540,221.4,540,220.6z M540.9,206.8c1.4,0,2.5,1.1,2.5,2.5c0,1.4-1.1,2.5-2.5,2.5c-1.4,0-2.6-1.1-2.6-2.5
				C538.3,208,539.5,206.8,540.9,206.8z M538.5,248c0,1.3-1,2.3-2.3,2.3c-1.3,0-2.3-1-2.3-2.3c0-1.3,1-2.3,2.3-2.3
				C537.5,245.7,538.5,246.7,538.5,248z M536.3,235.3c0.9,0,1.6,0.7,1.6,1.6c0,0.9-0.7,1.6-1.6,1.6c-0.9,0-1.6-0.7-1.6-1.6
				C534.6,236.1,535.4,235.3,536.3,235.3z M534.9,226.1c0-0.6,0.5-1.1,1.1-1.1c0.6,0,1.1,0.5,1.1,1.1c0,0.6-0.5,1.1-1.1,1.1
				C535.4,227.2,534.9,226.7,534.9,226.1z M535.4,212.4c1.4,0,2.5,1.1,2.5,2.5c0,1.4-1.1,2.5-2.5,2.5c-1.4,0-2.6-1.1-2.6-2.5
				C532.9,213.5,534,212.4,535.4,212.4z M535.4,294.2c-1.4,0-2.6-1.1-2.6-2.5c0-1.4,1.1-2.5,2.6-2.5c1.4,0,2.5,1.1,2.5,2.5
				C537.9,293,536.8,294.2,535.4,294.2z M536.3,271.2c-0.9,0-1.6-0.7-1.6-1.6c0-0.9,0.7-1.6,1.6-1.6c0.9,0,1.6,0.7,1.6,1.6
				C537.9,270.5,537.2,271.2,536.3,271.2z M537.1,280.4c0,0.6-0.5,1.1-1.1,1.1c-0.6,0-1.1-0.5-1.1-1.1c0-0.6,0.5-1.1,1.1-1.1
				C536.6,279.4,537.1,279.8,537.1,280.4z M536.2,260.9c-1.3,0-2.3-1-2.3-2.3s1-2.3,2.3-2.3c1.3,0,2.3,1,2.3,2.3
				S537.5,260.9,536.2,260.9z M540.9,299.8c-1.4,0-2.6-1.1-2.6-2.6c0-1.4,1.1-2.5,2.6-2.5c1.4,0,2.5,1.1,2.5,2.5
				C543.4,298.6,542.3,299.8,540.9,299.8z M540,286c0-0.8,0.7-1.5,1.5-1.5c0.8,0,1.4,0.7,1.4,1.5c0,0.8-0.6,1.4-1.4,1.4
				C540.6,287.4,540,286.8,540,286z M541.6,277c-1.1,0-2-0.9-2-2c0-1.1,0.9-2,2-2c1.1,0,2,0.9,2,2C543.6,276.1,542.7,277,541.6,277z
				 M546.9,292.8c-0.8,0-1.5-0.6-1.5-1.5c0-0.8,0.7-1.4,1.5-1.4c0.8,0,1.4,0.6,1.4,1.4C548.3,292.2,547.7,292.8,546.9,292.8z
				 M552.3,298.3c-0.8,0-1.4-0.7-1.4-1.5s0.6-1.5,1.5-1.5c0.8,0,1.4,0.7,1.4,1.5C553.7,297.6,553.1,298.3,552.3,298.3z M557.5,304.5
				c-1.1,0-1.9-0.9-1.9-1.9c0-1.1,0.8-1.9,1.9-1.9c1,0,1.9,0.9,1.9,1.9C559.4,303.6,558.5,304.5,557.5,304.5z M557.8,293.3
				c-1.3,0-2.4-1.1-2.4-2.4c0-1.3,1.1-2.4,2.4-2.4c1.3,0,2.4,1,2.4,2.4C560.1,292.3,559.1,293.3,557.8,293.3z M563.1,294.8
				c1,0,1.8,0.8,1.8,1.8c0,1-0.8,1.8-1.8,1.8c-1,0-1.8-0.8-1.8-1.8C561.3,295.7,562.1,294.8,563.1,294.8z M564.2,310.5l-1.4,0.1
				c-1.4,0-2.5-1.1-2.5-2.5c0-1.4,1.1-2.5,2.5-2.5h0.3c1.4,0,2.5,1.1,2.5,2.5l0,1C565.7,309.8,565,310.5,564.2,310.5z M568.5,303.9
				c-0.9,0-1.5-0.7-1.5-1.5c0-0.9,0.7-1.6,1.5-1.6c0.8,0,1.5,0.7,1.5,1.6C570,303.2,569.3,303.9,568.5,303.9z M573.8,310.4
				c-1.3,0-2.3-1-2.3-2.3c0-1.3,1-2.3,2.3-2.3c1.2,0,2.3,1,2.3,2.3C576.1,309.4,575.1,310.4,573.8,310.4z M573.9,298.6
				c-1.2,0-2.2-1-2.2-2.2c0-1.2,1-2.2,2.2-2.2c1.2,0,2.2,1,2.2,2.2C576.1,297.6,575.1,298.6,573.9,298.6z M579.3,303.7
				c-0.8,0-1.5-0.6-1.5-1.4c0-0.8,0.7-1.5,1.5-1.5c0.8,0,1.4,0.7,1.4,1.5C580.8,303,580.1,303.7,579.3,303.7z M584.8,294.7
				c1,0,1.8,0.8,1.8,1.8c0,1-0.8,1.8-1.8,1.8c-1,0-1.8-0.8-1.8-1.8C583,295.5,583.8,294.7,584.8,294.7z M584.9,310.5
				c-1.3,0-2.4-1.1-2.4-2.4c0-1.3,1.1-2.4,2.4-2.4c1.3,0,2.4,1,2.4,2.4C587.2,309.5,586.2,310.5,584.9,310.5z M590.2,303.7
				c-0.8,0-1.4-0.6-1.4-1.4c0-0.8,0.6-1.5,1.4-1.5c0.8,0,1.4,0.6,1.5,1.5C591.7,303.1,591,303.7,590.2,303.7z M595.6,298.2
				c-0.8,0-1.5-0.7-1.5-1.5c0-0.8,0.7-1.4,1.5-1.4c0.8,0,1.5,0.7,1.5,1.4C597.1,297.6,596.4,298.2,595.6,298.2z M601,289.2
				c1,0,1.8,0.8,1.8,1.8c0,1-0.8,1.8-1.8,1.8c-1,0-1.8-0.8-1.8-1.8C599.2,290,600,289.2,601,289.2z M601.3,305c-1.2,0-2.2-1-2.2-2.2
				s1-2.2,2.2-2.2c1.2,0,2.2,1,2.2,2.2C603.5,304.1,602.5,305,601.3,305z M606.7,298.9c-1,0-1.8-0.8-1.8-1.8c0-1,0.8-1.8,1.8-1.8
				c1,0,1.8,0.8,1.8,1.8C608.5,298.1,607.7,298.9,606.7,298.9z M606.5,288c-1.3,0-2.4-1.1-2.4-2.4s1.1-2.4,2.3-2.4
				c1.3,0,2.4,1.1,2.4,2.4S607.8,288,606.5,288z M612.2,293.4c-1.1,0-2-0.9-2-2c0-1.1,0.9-2,2-2c1.1,0,2,0.9,2,2
				C614.2,292.5,613.3,293.4,612.2,293.4z"/>
		</g>
		<path d="M446,316.4c-1.7,0-3.6-0.1-5.5-0.4l2.8-21c1,0.1,1.8,0.2,2.7,0.2h1l0.4,21.2C447,316.3,446.5,316.4,446,316.4z
			 M454.4,315.8l-2.7-21c1.4-0.2,2.7-0.4,4-0.7l5.1,20.6C458.7,315.1,456.6,315.5,454.4,315.8z M433.3,314.5
			c-2.2-0.6-4.3-1.4-6.3-2.2l8.4-19.5c1.2,0.5,2.4,0.9,3.7,1.3L433.3,314.5z M467.9,312.3l-8.2-19.5c1.1-0.5,2.1-1,3-1.6l11.6,17.7
			C472.3,310.2,470.2,311.3,467.9,312.3z M420.3,308.7c-2.2-1.5-4.3-3.1-5.9-4.8l15.2-14.8c0.6,0.6,1.4,1.2,2.3,1.8L420.3,308.7z
			 M480.8,303.5l-15.7-14.3c0.6-0.7,1.1-1.3,1.5-2.1l18.8,9.9C484.1,299.3,482.6,301.5,480.8,303.5z M409.5,297.3l-2.5-4.1
			l18.4-10.6l2.2,3.5L409.5,297.3z M488.3,288.7l-20.7-4.4c0.2-1,0.3-2,0.3-3.1l21.2,0.1C489.1,283.9,488.8,286.4,488.3,288.7z
			 M467.6,277.4c-0.2-1-0.4-1.8-0.8-2.5l19.2-9c1.1,2.3,1.9,4.9,2.4,7.6L467.6,277.4z M465.3,272.8c-0.6-0.7-1.4-1.4-2.4-2.1
			l12.5-17.1c2.1,1.6,3.9,3.2,5.5,4.9L465.3,272.8z M459.2,268.3c-1.3-0.7-2.7-1.4-4.2-2.1l9.1-19.2c2,0.9,3.7,1.8,5.3,2.7
			L459.2,268.3z M450,263.9c-1.5-0.7-3.1-1.4-4.8-2.1l8.4-19.5c1.7,0.7,3.4,1.4,4.9,2.1L450,263.9z M440.2,259.8
			c-1.3-0.5-3.4-1.3-5.7-2.4l9.1-19.1c1.6,0.8,3.1,1.4,4.1,1.7L440.2,259.8z M428.3,253.9c-2.3-1.5-4.3-3-5.9-4.6l14.9-15.1
			c0.4,0.4,1.1,1,2.4,1.9L428.3,253.9z M417.3,243.4c-1.5-2.2-2.8-4.6-3.7-7l19.8-7.5c0.3,0.8,0.7,1.6,1.3,2.4L417.3,243.4z
			 M411.7,227.9c-0.1-1.1-0.1-2.3-0.1-3.5c0-1.4,0.1-2.8,0.3-4.1l21,2.8c-0.1,0.5-0.1,0.9-0.1,1.4c0,0.5,0,1.1,0.1,1.6L411.7,227.9z
			 M464.1,221.7c0,0-1.5-2.2-2.9-4.3l17.4-12.1c1.5,2.2,3.1,4.5,3.1,4.5L464.1,221.7z M433.6,220.2l-19.6-8.2c1-2.4,2.3-4.6,3.8-6.7
			l17.2,12.4C434.5,218.5,434,219.3,433.6,220.2z M437.3,215.2l-13.9-16.1c1.9-1.6,3.9-3.1,6.1-4.3l10.3,18.6
			C438.9,213.9,438.1,214.5,437.3,215.2z M459,214.5c-0.4-0.4-1-0.7-1.7-1.1l9.1-19.2c2.7,1.3,5.1,2.9,7.1,4.8L459,214.5z
			 M454,212.3c-1.2-0.3-2.5-0.5-3.8-0.6l1.9-21.1c2.3,0.2,4.5,0.6,6.6,1.1L454,212.3z M443,212.1l-5.8-20.4c2.4-0.7,4.9-1.1,7.5-1.3
			l1.3,21.2C445,211.7,444,211.9,443,212.1z"/>
		<g>
			<path d="M199.5,315.8c-0.2,0-0.4,0-0.6-0.1c-30.5-4.5-51.8-30.2-51.8-62.5c0-32.3,21.3-57.9,51.9-62.5c2.4-0.4,4.5,1.3,4.9,3.6
				c0.4,2.4-1.3,4.5-3.6,4.9c-26.2,3.9-44.5,26.1-44.5,53.9c0,27.9,18.3,50.1,44.5,53.9c2.3,0.3,4,2.5,3.6,4.9
				C203.4,314.3,201.5,315.8,199.5,315.8z"/>
			<path d="M217.5,315.8c-2.1,0-3.9-1.5-4.3-3.7c-0.4-2.4,1.3-4.6,3.6-4.9c26.2-3.9,44.5-26.1,44.5-53.9c0-27.9-18.3-50-44.5-53.9
				c-2.4-0.4-4-2.5-3.6-4.9c0.3-2.4,2.5-4,4.9-3.6c30.5,4.5,51.8,30.2,51.8,62.5c0,32.2-21.3,57.9-51.8,62.5
				C217.9,315.8,217.7,315.8,217.5,315.8z"/>
		</g>
		<g>
			<path d="M199.2,302.6c-0.3,0-0.6,0-0.8-0.1c-23.2-4.6-38.8-24.4-38.8-49.2c0-24.9,15.7-44.7,39-49.2c2.3-0.5,4.6,1.1,5,3.4
				c0.5,2.3-1.1,4.6-3.4,5c-19.2,3.7-32,20.1-32,40.8c0,20.6,12.8,37,31.9,40.7c2.3,0.5,3.8,2.7,3.4,5.1
				C203.1,301.2,201.3,302.6,199.2,302.6z"/>
			<path d="M217.5,302.7c-2,0-3.8-1.4-4.2-3.5c-0.5-2.3,1.1-4.6,3.4-5c19.2-3.7,32.1-20.1,32.1-40.8c0-20.6-12.8-37-31.9-40.7
				c-2.3-0.5-3.8-2.7-3.4-5.1c0.5-2.3,2.7-3.9,5.1-3.4c23.2,4.6,38.8,24.4,38.8,49.2c0,24.9-15.7,44.7-39,49.2
				C218,302.6,217.7,302.7,217.5,302.7z"/>
		</g>
		<g>
			<path opacity="0.8" d="M344.8,261.6h-37c-5.9,0-10.6-4.8-10.6-10.6c0-5.9,4.8-10.6,10.6-10.6h37c6.3,0,12.1-6.5,12.1-13.6
				c0-7.1-5.8-13.6-12.1-13.6h-37c-5.9,0-10.6-4.7-10.6-10.6c0-5.9,4.8-10.6,10.6-10.6h37c18,0,33.3,15.9,33.3,34.8
				S362.8,261.6,344.8,261.6z"/>
			<path opacity="0.8" d="M344.6,314.3h-36.8c-5.9,0-10.6-4.7-10.6-10.6c0-5.9,4.8-10.6,10.6-10.6h36.8c9.7,0,17.1-6.8,17.1-15.9
				c0-9-7.2-15.6-17.1-15.6h-36.8c-5.9,0-10.6-4.8-10.6-10.6c0-5.9,4.8-10.6,10.6-10.6h36.8c21.5,0,38.3,16.2,38.3,36.8
				C382.9,298,366.1,314.3,344.6,314.3z"/>
			<path opacity="0.8" d="M307.8,314.3c-5.9,0-10.6-4.7-10.6-10.6V202.6c0-5.9,4.8-10.6,10.6-10.6c5.9,0,10.6,4.7,10.6,10.6v101.1
				C318.4,309.5,313.7,314.3,307.8,314.3z"/>
		</g>
	</g>
</g>
</svg>
