<?xml version="1.0" encoding="utf-8"?>
<!-- Generator: Adobe Illustrator 18.0.0, SVG Export Plug-In . SVG Version: 6.00 Build 0)  -->
<!DOCTYPE svg PUBLIC "-//W3C//DTD SVG 1.1//EN" "http://www.w3.org/Graphics/SVG/1.1/DTD/svg11.dtd">
<svg version="1.1" id="Layer_1" xmlns="http://www.w3.org/2000/svg" xmlns:xlink="http://www.w3.org/1999/xlink" x="0px" y="0px"
	 viewBox="0 0 792 612" enable-background="new 0 0 792 612" xml:space="preserve">
<g>
	<path fill="#010101" d="M375.1,115.1c-0.2,0-0.5,0-0.7,0v42.3c-82.1,0.2-148.7,66.8-148.7,149c0,82.2,66.6,148.9,148.7,149.1v42.3
		c0.2,0,0.5,0,0.7,0c105.7,0,191.4-85.7,191.4-191.3S480.8,115.1,375.1,115.1z M252.3,306.4c0-67.5,54.6-122.3,122.1-122.5
		c0.1,0,0.2,0,0.4,0c67.6,0,122.5,54.8,122.5,122.5c0,67.7-54.8,122.5-122.5,122.5c-0.1,0-0.2,0-0.4,0
		C306.9,428.7,252.3,373.9,252.3,306.4z"/>
	<path fill="#010101" d="M407,306.4c0,17.8-14.4,32.2-32.2,32.2c-17.8,0-32.2-14.4-32.2-32.2c0-17.8,14.4-32.2,32.2-32.2
		C392.6,274.2,407,288.6,407,306.4z"/>
</g>
</svg>
