<?xml version="1.0" encoding="utf-8"?>
<!-- Generator: Adobe Illustrator 18.0.0, SVG Export Plug-In . SVG Version: 6.00 Build 0)  -->
<!DOCTYPE svg PUBLIC "-//W3C//DTD SVG 1.1//EN" "http://www.w3.org/Graphics/SVG/1.1/DTD/svg11.dtd">
<svg version="1.1" id="Layer_1" xmlns="http://www.w3.org/2000/svg" xmlns:xlink="http://www.w3.org/1999/xlink" x="0px" y="0px"
	 viewBox="0 0 200 30" enable-background="new 0 0 200 30" xml:space="preserve">
<path fill="#FFFFFF" d="M23.5,15c0-5.3-3.5-9.4-8.7-9.4c-5.2,0-8.7,4.1-8.7,9.4c0,5.3,3.5,9.4,8.7,9.4C20,24.4,23.5,20.3,23.5,15
	 M0,15C0,6.6,6.6,0.3,14.8,0.3C23,0.3,29.6,6.6,29.6,15c0,8.4-6.6,14.7-14.8,14.7C6.6,29.7,0,23.4,0,15 M46.2,24.1
	c2.1,0,3.6-1.4,3.6-3.6c0-2.1-1.5-3.5-4-3.5h-5.1v7.1H46.2z M45.1,12c2.4,0,3.7-1.1,3.7-3.1c0-1.9-1.1-3.1-3.4-3.1h-4.6V12H45.1z
	 M34.9,0.7h10.9c5.8,0,8.7,3.3,8.7,7.7c0,2.8-1.7,5.2-4.4,5.8c3.4,0.8,5.6,2.9,5.6,6.9c0,4.7-3.4,8.2-9.3,8.2H34.9V0.7z M60.2,23.9
	l4.7-3c1.3,2.1,2.9,3.6,5.8,3.6c2.4,0,4-1.2,4-2.9c0-2-1.6-2.7-4.3-3.9L68.9,17c-4.2-1.8-7.1-4.1-7.1-8.9c0-4.4,3.4-7.8,8.6-7.8
	c3.7,0,6.4,1.3,8.4,4.7L74.2,8c-1-1.8-2.1-2.5-3.8-2.5c-1.7,0-2.8,1.1-2.8,2.5c0,1.8,1.1,2.5,3.6,3.6l1.5,0.6c5,2.1,7.8,4.3,7.8,9.2
	c0,5.3-4.2,8.2-9.8,8.2C65.4,29.7,61.9,27.2,60.2,23.9 M117.2,19V0.7h5.9v17.9c0,4.2,1.8,5.8,5.7,5.8c3.9,0,5.6-1.6,5.6-5.8V0.7h5.9
	V19c0,7.2-5,10.7-11.5,10.7C122.2,29.7,117.2,26.2,117.2,19 M158.3,14.4c2.9,0,4.8-1.1,4.8-4.3c0-3.2-1.9-4.2-4.8-4.2h-4.5v8.5
	H158.3z M147.9,0.7h10.6c5.8,0,10.6,2.7,10.6,9.4c0,4.3-2.3,7.1-5.6,8.4l6.5,10.8h-6.7l-5.8-9.9h-3.7v9.9h-5.9V0.7z M99.7,24.3
	c3.1,0,5.4-1.5,6.8-3.5l4.6,3c-2.6,4-6.3,5.8-11.4,5.8c-8.2,0-14.7-6.2-14.7-14.6c0-8.4,6.5-14.6,14.7-14.6c5.2,0,8.9,1.8,11.4,5.8
	l-4.6,3c-1.4-2.1-3.6-3.5-6.8-3.5c-5.2,0-8.7,4-8.7,9.3C91,20.3,94.5,24.3,99.7,24.3 M183,20.8l1.9-4.7c0.8-2,1.7-5.1,1.7-5.1
	s0.9,3.1,1.7,5.1l1.9,4.7H183z M186.9,0.5h-0.5l-12.6,28.8h5.7l1.5-3.5h11.3l1.5,3.5h6.2L186.9,0.5z"/>
</svg>
