<?xml version="1.0" encoding="utf-8"?>
<!-- Generator: Adobe Illustrator 18.0.0, SVG Export Plug-In . SVG Version: 6.00 Build 0)  -->
<!DOCTYPE svg PUBLIC "-//W3C//DTD SVG 1.1//EN" "http://www.w3.org/Graphics/SVG/1.1/DTD/svg11.dtd">
<svg version="1.1" xmlns="http://www.w3.org/2000/svg" xmlns:xlink="http://www.w3.org/1999/xlink" x="0px" y="0px"
	 viewBox="0 0 1000 1000" enable-background="new 0 0 1000 1000" xml:space="preserve">
<g id="bg">
	<g id="POLYLINE_7_">
		<rect width="1000" height="1000"/>
	</g>
</g>
<g id="icon">
	<g id="POLYLINE">
		<polyline fill="#FFFFFF" points="500,1000 933,500 500,750 		"/>
	</g>
	<g id="POLYLINE_1_">
		<polygon fill="#FFFFFF" points="67,500 500,1000 500,750 		"/>
	</g>
	<g id="POLYLINE_2_">
		<polygon fill="#FFFFFF" points="933,500 716.5,125 500,250 		"/>
	</g>
	<g id="POLYLINE_3_">
		<polygon fill="#FFFFFF" points="67,500 283.5,125 500,250 		"/>
	</g>
	<g id="POLYLINE_4_">
		<polygon fill="#FFFFFF" points="716.5,375 933,500 716.5,625 		"/>
	</g>
	<g id="POLYLINE_5_">
		<polygon fill="#FFFFFF" points="67,500 283.5,375 283.5,625 		"/>
	</g>
	<g id="POLYLINE_6_">
		<polygon fill="#FFFFFF" points="283.5,125 716.5,125 500,250 		"/>
	</g>
</g>
<g id="icon_1_">
	<path fill="#FFFFFF" d="M716.5,125h-433L67,500l433,500l433-500L716.5,125z M500,750L283.5,625V375L500,250l216.5,125v250L500,750z
		"/>
</g>
</svg>
